<svg xmlns="http://www.w3.org/2000/svg" viewBox="0 0 380 80" role="img" aria-labelledby="dropwire-wordmark-title dropwire-wordmark-desc">
  <title id="dropwire-wordmark-title">Dropwire wordmark</title>
  <desc id="dropwire-wordmark-desc">Dropwire wordmark with two direct device nodes connected by a live spark wire.</desc>
  <path d="M18 44h24l6-12 6 12h28" fill="none" stroke="#0E1116" stroke-width="6" stroke-linecap="round" stroke-linejoin="round"/>
  <circle cx="18" cy="44" r="8" fill="#C6F032"/>
  <circle cx="82" cy="44" r="7" fill="#0E1116"/>
  <g fill="#0E1116" transform="translate(104 57) scale(.06 -.06)">
    <path d="M46 0V106H140V594H46V700H331Q471 700 545 629Q619 558 619 416V284Q619 142 545 71Q471 0 331 0ZM260 109H332Q417 109 458 153Q499 197 499 280V419Q499 504 458 547.5Q417 591 332 591H260ZM716 0V494H829V437H846Q857 468 883 482Q909 496 945 496H1005V394H943Q893 394 862 367.5Q831 341 831 286V0ZM1319-14Q1245-14 1186.5 16.5Q1128 47 1094.5 103.5Q1061 160 1061 239V255Q1061 334 1094.5 391Q1128 448 1186.5 478Q1245 508 1319 508Q1393 508 1451 478Q1509 448 1542.5 391Q1576 334 1576 255V239Q1576 160 1542.5 103.5Q1509 47 1451 16.5Q1393-14 1319-14ZM1319 88Q1382 88 1422 128.5Q1462 169 1462 242V252Q1462 325 1422 365.5Q1382 406 1319 406Q1256 406 1216 365.5Q1176 325 1176 252V242Q1176 169 1216 128.5Q1256 88 1319 88ZM1676-200V494H1789V429H1806Q1823 460 1860.5 484Q1898 508 1968 508Q2028 508 2079.5 478.5Q2131 449 2162 392Q2193 335 2193 255V239Q2193 159 2162 102Q2131 45 2080 15.5Q2029-14 1968-14Q1921-14 1889.5-3Q1858 8 1838.5 26Q1819 44 1808 62H1791V-200ZM1934 86Q1997 86 2037.5 126.5Q2078 167 2078 242V252Q2078 328 2037 368Q1996 408 1934 408Q1872 408 1830.5 368Q1789 328 1789 252V242Q1789 167 1830.5 126.5Q1872 86 1934 86ZM2340 0 2263 494H2377L2430 77H2447L2522 494H2706L2781 77H2798L2851 494H2965L2888 0H2697L2623 417H2606L2531 0ZM3059 0V494H3174V0ZM3116 557Q3085 557 3062.5 577.5Q3040 598 3040 632Q3040 666 3062.5 686.5Q3085 707 3116 707Q3149 707 3170.5 686.5Q3192 666 3192 632Q3192 598 3170.5 577.5Q3149 557 3116 557ZM3298 0V494H3411V437H3428Q3439 468 3465 482Q3491 496 3527 496H3587V394H3525Q3475 394 3444 367.5Q3413 341 3413 286V0ZM3893-14Q3819-14 3762.5 17.5Q3706 49 3674.5 106.5Q3643 164 3643 241V253Q3643 331 3674 388Q3705 445 3761 476.5Q3817 508 3890 508Q3962 508 4016 476.5Q4070 445 4100 388Q4130 331 4130 255V214H3759Q3761 156 3800 121Q3839 86 3896 86Q3952 86 3979 110.5Q4006 135 4020 166L4115 117Q4101 90 4074.5 59.5Q4048 29 4004 7.5Q3960-14 3893-14ZM3760 301H4013Q4009 350 3975.5 379Q3942 408 3889 408Q3834 408 3801 379Q3768 350 3760 301Z"/>
  </g>
</svg>
